<?xml version="1.0" standalone="no"?>
<!DOCTYPE svg PUBLIC "-//W3C//DTD SVG 20010904//EN"
 "http://www.w3.org/TR/2001/REC-SVG-20010904/DTD/svg10.dtd">
<svg version="1.0" xmlns="http://www.w3.org/2000/svg"
 width="237.000000pt" height="237.000000pt" viewBox="0 0 237.000000 237.000000"
 preserveAspectRatio="xMidYMid meet">
<metadata>
Created by potrace 1.11, written by Peter Selinger 2001-2013
</metadata>
<g transform="translate(0.000000,237.000000) scale(0.100000,-0.100000)"
fill="#000000" stroke="none">
<path d="M1307 2304 c-10 -47 -64 -131 -104 -161 -33 -25 -44 -28 -113 -28
-82 1 -116 16 -171 77 l-25 29 -21 -49 c-36 -83 -106 -142 -168 -142 -32 0
-81 44 -97 85 -6 19 -15 35 -18 35 -4 0 -12 -17 -18 -38 -22 -71 -98 -169
-188 -240 -46 -35 -119 -71 -146 -72 -32 0 -46 48 -34 120 l6 35 -25 -30 c-61
-73 -136 -233 -148 -315 -11 -71 -20 -156 -22 -200 -1 -25 -5 -62 -9 -82 -5
-21 -5 -55 -1 -75 l7 -37 27 79 c92 265 283 474 551 602 69 33 164 70 200 78
8 1 33 8 55 13 22 6 58 13 80 17 23 3 52 8 65 11 32 6 295 7 335 0 17 -2 48
-8 70 -11 54 -9 187 -48 255 -75 184 -72 377 -216 478 -355 20 -27 39 -52 42
-55 22 -19 132 -272 129 -295 0 -3 3 -24 7 -48 21 -124 3 -332 -37 -430 -23
-54 0 -38 26 19 27 60 52 146 58 202 2 17 7 35 10 39 19 18 6 172 -27 329 -7
34 -34 109 -55 156 -71 155 -156 397 -176 503 -11 56 -12 58 -13 74 -1 9 -13
3 -32 -17 -82 -87 -206 -98 -387 -35 -182 62 -299 154 -342 267 -18 48 -18 48
-24 20z"/>
<path d="M0 909 c0 -9 3 -19 7 -23 4 -3 8 -17 10 -29 10 -73 68 -213 126 -304
89 -140 264 -292 432 -374 263 -128 515 -162 835 -112 57 8 191 50 260 80 181
79 311 173 425 308 80 94 81 98 26 60 -67 -44 -84 -37 -107 43 -21 79 -22 80
-24 52 -1 -14 -3 -32 -5 -40 -2 -8 -6 -31 -10 -50 -16 -87 -69 -171 -125 -200
-89 -45 -170 -11 -228 97 -18 34 -32 68 -32 77 0 35 -17 5 -24 -40 -15 -113
-101 -224 -201 -261 -79 -30 -202 -27 -267 6 -116 59 -185 190 -204 386 -6 69
-14 99 -14 57 0 -25 -48 -149 -89 -230 -36 -70 -85 -122 -117 -122 -69 0 -138
132 -136 263 l1 40 -21 -34 c-33 -54 -84 -99 -113 -99 -36 0 -81 47 -96 101
-13 48 -16 209 -5 255 7 26 5 25 -31 -15 -30 -33 -47 -43 -78 -47 -55 -7 -93
19 -149 103 -26 37 -46 61 -46 52z"/>
</g>
</svg>
